<?xml version="1.0" standalone="no"?>
<!DOCTYPE svg PUBLIC "-//W3C//DTD SVG 20010904//EN"
 "http://www.w3.org/TR/2001/REC-SVG-20010904/DTD/svg10.dtd">
<svg version="1.0" xmlns="http://www.w3.org/2000/svg"
 width="122.000000pt" height="70.000000pt" viewBox="0 0 122.000000 70.000000"
 preserveAspectRatio="xMidYMid meet">
<metadata>
Created by potrace 1.16, written by Peter Selinger 2001-2019
</metadata>
<g transform="translate(0.000000,70.000000) scale(0.100000,-0.100000)"
fill="#000000" stroke="none">
<path d="M70 556 c0 -2 9 -25 20 -50 18 -42 22 -46 55 -46 31 0 35 -3 35 -25
0 -18 -7 -28 -25 -35 -24 -9 -25 -14 -25 -85 0 -55 6 -88 20 -120 28 -62 70
-82 70 -34 0 10 -8 20 -17 22 -14 4 -13 5 3 6 12 0 36 14 53 30 52 49 125 49
177 0 19 -18 37 -20 207 -21 180 -2 188 -1 211 21 32 30 84 43 124 31 47 -13
97 -60 97 -90 0 -21 5 -25 30 -25 28 0 30 3 33 40 3 55 -17 91 -48 87 -14 -1
-34 4 -45 13 -19 14 -19 15 -2 29 18 14 18 15 -3 26 -12 7 -54 21 -93 31 -40
12 -109 43 -161 74 -141 84 -212 89 -378 25 -44 -17 -102 -34 -129 -37 -45 -5
-48 -4 -42 16 4 15 13 21 35 21 24 0 29 4 26 22 -2 18 -19 26 -103 50 -97 27
-125 33 -125 24z m658 -151 c28 -15 59 -36 68 -46 17 -18 12 -19 -159 -19
l-177 0 0 35 c0 50 38 67 140 62 60 -3 87 -9 128 -32z"/>
<path d="M304 230 c-33 -13 -64 -64 -64 -103 0 -74 81 -125 151 -96 35 14 69
62 69 97 0 76 -84 131 -156 102z m100 -50 c23 -22 25 -72 6 -96 -57 -68 -164
-6 -131 75 22 52 83 62 125 21z"/>
<path d="M904 230 c-36 -14 -64 -59 -64 -102 0 -55 51 -108 105 -108 55 0 105
52 105 110 0 34 -6 48 -34 76 -35 35 -68 42 -112 24z m99 -47 c24 -23 23 -85
-3 -108 -30 -27 -88 -25 -111 4 -62 76 40 170 114 104z"/>
</g>
</svg>
